<svg width="128" height="128" viewBox="0 0 128 128" fill="none" xmlns="http://www.w3.org/2000/svg">
<path d="M56 33H14C12.8954 33 12 33.8954 12 35C12 36.1046 12.8954 37 14 37H56C57.1046 37 58 36.1046 58 35C58 33.8954 57.1046 33 56 33Z" fill="#ECAC3B"/>
<path d="M56 41H14C12.8954 41 12 41.8954 12 43C12 44.1046 12.8954 45 14 45H56C57.1046 45 58 44.1046 58 43C58 41.8954 57.1046 41 56 41Z" fill="#ECAC3B"/>
<path d="M56 49H14C12.8954 49 12 49.8954 12 51C12 52.1046 12.8954 53 14 53H56C57.1046 53 58 52.1046 58 51C58 49.8954 57.1046 49 56 49Z" fill="#ECAC3B"/>
<path d="M58 108C57.9999 106.895 57.1045 106 56 106H14C12.8954 106 12 106.895 12 108C12 109.105 12.8954 110 14 110H56C57.1045 110 57.9999 109.105 58 108Z" fill="#ECAC3B"/>
<path d="M14 114C12.8954 114 12 114.895 12 116C12 117.105 12.8954 118 14 118H43C44.1046 118 45 117.105 45 116C45 114.895 44.1046 114 43 114H14Z" fill="#ECAC3B"/>
<path d="M43 78C44.1046 78 45 77.1046 45 76C45 74.8954 44.1046 74 43 74H14C12.8954 74 12 74.8954 12 76C12 77.1046 12.8954 78 14 78H43Z" fill="#ECAC3B"/>
<path fill-rule="evenodd" clip-rule="evenodd" d="M16 98C13.7909 98 12 96.2091 12 94V86C12 83.7909 13.7909 82 16 82H24C26.2091 82 28 83.7909 28 86V94C28 96.2091 26.2091 98 24 98H16ZM24 86H16V94H24V86Z" fill="#ECAC3B"/>
<path d="M54.7578 68.7568L57.5146 66H14C12.8954 66 12 66.8954 12 68C12 69.1046 12.8954 70 14 70H53.8092C54.0698 69.546 54.3888 69.1281 54.7578 68.7568Z" fill="#ECAC3B"/>
<path d="M91.7772 31.7378C91.2392 30.1069 89.7173 29.0039 88 29H68C65.7909 29 64 30.7909 64 33V53C64.0039 54.7172 65.1069 56.239 66.7376 56.7771L70.5148 53H68V33H88V35.515L91.7772 31.7378Z" fill="#ECAC3B"/>
<path d="M73.8975 89.6924L72 90.3249V94C72 96.2091 73.7909 98 76 98H84C86.2091 98 88 96.2091 88 94V86C88 83.7909 86.2091 82 84 82H82.4849L78.4849 86H84V94H76V88.4581C75.3907 89.0087 74.6752 89.4287 73.8975 89.6924Z" fill="#ECAC3B"/>
<path d="M48.9225 86L50.0989 82H46C43.7909 82 42 83.7909 42 86V94C42 96.2091 43.7909 98 46 98H54C55.8026 97.9963 57.3787 96.7843 57.8452 95.0431L55.8975 95.6924C53.7781 96.3983 51.442 95.869 49.834 94.3184C49.73 94.218 49.642 94.1064 49.5464 94H46V86H48.9225Z" fill="#ECAC3B"/>
<path fill-rule="evenodd" clip-rule="evenodd" d="M104 8V19.5151L100 23.5151V18H4V120C4 122.209 5.79086 124 8 124H96C98.2091 124 100 122.209 100 120V64.4849L104 60.4849V120C103.995 124.416 100.416 127.995 96 128H8C3.58378 127.995 0.00495988 124.416 0 120V8C0.00495988 3.58378 3.58378 0.00495988 8 0H96C100.416 0.00495988 103.995 3.58378 104 8ZM4 8V14H100V8C100 5.79086 98.2091 4 96 4H8C5.79086 4 4 5.79086 4 8Z" fill="#ECAC3B"/>
<path fill-rule="evenodd" clip-rule="evenodd" d="M114 16C114.53 16 115.039 16.2108 115.414 16.5859L127.414 28.5859C127.789 28.9609 128 29.4696 128 30C128 30.5304 127.789 31.0391 127.414 31.4141L73.4141 85.4141C73.1946 85.6337 72.9269 85.7992 72.6323 85.8975L54.6323 91.8975C53.9258 92.1328 53.147 91.9562 52.6111 91.4391C52.0753 90.922 51.871 90.15 52.0811 89.4355L57.0811 72.4355C57.1755 72.1145 57.3491 71.8224 57.5859 71.5859L112.586 16.5859C112.961 16.2108 113.47 16 114 16ZM60.7749 74.0537L56.9985 86.8926L69.7977 82.6259L61.0002 73.8284L60.7749 74.0537ZM72.9998 80.1716L63.8284 71.0002L107 27.8282L116.172 36.9997L72.9998 80.1716ZM109.828 25L119 34.1716L123.171 30L114 20.8281L109.828 25Z" fill="#ECAC3B"/>
</svg>
