<svg width="109" height="109" viewBox="0 0 109 109" fill="none" xmlns="http://www.w3.org/2000/svg">
<path fill-rule="evenodd" clip-rule="evenodd" d="M66.4972 100.894C67.398 99.9504 68.2265 98.94 68.9757 97.8717L67.2528 92.4311C64.896 97.0949 60.7708 100.621 55.7972 102.224V82.2751H63.9884L63.263 80.0686L62.5678 77.8319H55.7669V55.7669H76.4113C76.4113 57.8525 76.4113 59.9381 76.109 61.8121L80.4616 63.2025C80.7034 60.7542 80.8545 58.2153 80.8545 55.646H102.587C102.367 60.3765 101.461 65.0498 99.8969 69.5198L104.129 70.8799C105.819 66.0097 106.787 60.9179 107 55.7669V53.5302V51.3237C106.699 43.5741 104.686 35.9871 101.106 29.1076C100.365 27.5746 99.5272 26.0905 98.5972 24.6644C89.1974 9.94969 73.2118 0.744144 55.7669 0H53.5302H51.3842C33.9067 0.715035 17.8811 9.92412 8.46328 24.6644C7.56422 26.0929 6.75657 27.577 6.0452 29.1076C2.40354 35.9931 0.338633 43.6023 0 51.3842V55.8274C0.351272 64.4199 2.77805 72.7996 7.07288 80.25C7.23893 80.5157 7.40092 80.7894 7.56331 81.0639L7.56335 81.064L7.56339 81.064L7.56343 81.0641L7.56347 81.0642L7.5635 81.0642L7.56357 81.0644L7.56367 81.0645L7.56371 81.0646C7.8446 81.5393 8.1267 82.0161 8.43305 82.4565C17.8736 97.1707 33.9144 106.337 51.3842 107H53.5907H55.8274C60.98 106.802 66.0741 105.834 70.9404 104.129L69.5198 99.8969C68.53 100.281 67.5211 100.614 66.4972 100.894ZM102.527 51.3842H80.8847C80.7597 43.8853 79.745 36.4278 77.8621 29.1681H95.9977C99.9331 35.9389 102.173 43.5608 102.527 51.3842ZM76.7136 24.6644H93.2169C86.654 15.665 77.2353 9.15506 66.4972 6.19633C71.2526 11.5026 74.7453 17.8163 76.7136 24.6644ZM55.7669 4.68503C62.2958 6.10565 68.1596 13.7528 71.9379 24.6644H55.7669V4.68503ZM73.298 29.1076H55.7669V51.3237H76.3206C76.2289 43.8224 75.2137 36.3608 73.298 29.1076ZM40.654 6.19633C35.8224 11.4819 32.2564 17.7972 30.226 24.6644H13.8435C20.4038 15.6758 29.8091 9.16776 40.5331 6.19633H40.654ZM29.0774 29.1076H10.9418C7.04873 35.8892 4.85049 43.5105 4.5339 51.3237H26.0548C26.1799 43.8249 27.1945 36.3673 29.0774 29.1076ZM4.50367 55.7669H26.1757C26.3023 63.2557 27.317 70.7031 29.1983 77.9528H11.0627C7.10693 71.2 4.85569 63.5852 4.50367 55.7669ZM30.3771 82.396H13.8737C20.4199 91.4189 29.8439 97.9432 40.5935 100.894C35.822 95.588 32.3274 89.2605 30.3771 82.396ZM51.3842 102.345C44.8251 100.894 38.9915 93.2774 35.2133 82.396H51.3842V102.345ZM33.7624 77.9528H51.3842V55.7669H30.7398C30.8316 63.2584 31.8468 70.7099 33.7624 77.9528ZM51.3842 51.3842H30.6189C30.7106 43.8828 31.7258 36.4213 33.6415 29.1681H51.3842V51.3842ZM35.1226 24.7249H51.3842V4.68503C44.7647 6.0452 38.9008 13.7226 35.1226 24.7249Z" fill="#ECAC3B"/>
<path fill-rule="evenodd" clip-rule="evenodd" d="M69.695 64.2272L105.96 75.8991C107.715 76.411 108.941 77.9932 109 79.8202C109.02 81.5884 107.96 83.1904 106.325 83.8628L96.8405 87.723L104.136 95.018C105.354 96.2227 106.039 97.8644 106.039 99.5773C106.039 101.29 105.354 102.932 104.136 104.137C101.598 106.608 97.5542 106.608 95.0166 104.137L87.7211 96.8417L83.9821 106.295C83.3414 107.933 81.7589 109.008 80 109C78.1215 108.972 76.4701 107.749 75.8962 105.96L64.193 69.4856C63.7251 67.9852 64.1225 66.349 65.2265 65.2302C66.4151 64.0939 68.1347 63.7079 69.695 64.2272ZM90.7001 86.6592C90.8494 85.9257 91.3493 85.3122 92.0376 85.0178L104.227 80.0025L68.5399 68.5434L79.9696 104.258L84.9244 92.1C85.2188 91.4117 85.8324 90.9119 86.5659 90.7626C87.2943 90.6167 88.0474 90.8449 88.5722 91.3705L98.2996 101.036C98.6413 101.413 99.1288 101.623 99.6371 101.614C100.139 101.62 100.621 101.422 100.975 101.067C101.721 100.319 101.721 99.109 100.975 98.3615L91.308 88.6653C90.7672 88.1497 90.5364 87.3882 90.7001 86.6592Z" fill="#ECAC3B"/>
</svg>
