<svg width="91" height="128" viewBox="0 0 91 128" fill="none" xmlns="http://www.w3.org/2000/svg">
<path fill-rule="evenodd" clip-rule="evenodd" d="M0 89.5573V8.576C0.00466627 3.84156 3.81085 0.00470387 8.50745 0H59.2136C63.9102 0.00470387 67.7163 3.84156 67.721 8.576V36.2667H71.9536C72.661 36.2666 73.3217 36.6228 73.7143 37.216L90.6446 62.816C90.982 63.3262 91.0853 63.958 90.9282 64.5504L82.535 96.2795V102.4C83.7038 102.4 84.6513 103.355 84.6513 104.533V125.867C84.6513 127.045 83.7038 128 82.535 128H35.9768C34.808 128 33.8605 127.045 33.8605 125.867V104.533C33.8605 103.355 34.808 102.4 35.9768 102.4V98.1333H8.50745C3.81085 98.1286 0.00466627 94.2918 0 89.5573ZM44.4419 102.4V98.1333H40.2094V102.4H44.4419ZM69.8373 51.2V102.4H48.6745V88.3499L60.7521 76.1749C61.149 75.7749 61.3721 75.2324 61.3722 74.6667V51.2H69.8373ZM38.0931 106.667V123.733H80.4187V106.667H38.0931ZM70.8214 40.5333L86.5919 64.3819L78.3744 95.4496C78.3262 95.629 78.302 95.8141 78.3024 96V102.4H74.0699V49.0667C74.0699 47.8885 73.1224 46.9333 71.9536 46.9333H67.721V40.5333H70.8214ZM59.2136 4.26667H27.5117V93.8667H44.4419V87.4667C44.442 86.9009 44.6651 86.3584 45.062 85.9584L57.1396 73.7835V49.0667C57.1396 47.8885 58.0871 46.9333 59.2559 46.9333H63.4885V8.576C63.4861 6.197 61.5736 4.26902 59.2136 4.26667ZM14.814 4.26667H23.2791V93.8667H14.814V4.26667ZM8.50745 4.26667C6.14746 4.26902 4.2349 6.197 4.23256 8.576V89.5573C4.2349 91.9363 6.14746 93.8643 8.50745 93.8667H10.5814V4.26667H8.50745Z" fill="#ECAC3B"/>
<path fill-rule="evenodd" clip-rule="evenodd" d="M50.26 33H45.74C42.5716 32.9977 40.0033 30.3019 40 26.9751V18.0249C40.0033 14.6981 42.5716 12.0023 45.74 12H50.26C53.4284 12.0023 55.9967 14.6981 56 18.0249V26.9751C55.9967 30.3019 53.4284 32.9977 50.26 33ZM45.74 16.2C44.7798 16.2 44.0011 17.0167 44 18.0249V26.9751C44.0011 27.9833 44.7798 28.8 45.74 28.8H50.26C51.2202 28.8 51.9989 27.9833 52 26.9751V18.0249C51.9989 17.0167 51.2202 16.2 50.26 16.2H45.74Z" fill="#ECAC3B"/>
</svg>
